<svg width="75" height="75" viewBox="0 0 75 75" fill="none" xmlns="http://www.w3.org/2000/svg">
<circle cx="37.7609" cy="37.0566" r="37.0566" fill="#EB0B2B"/>
<path d="M31.5466 24.1006C31.5466 23.7835 31.7828 23.516 32.0975 23.4766L35.8708 23.0049C36.2461 22.958 36.5777 23.2507 36.5777 23.629V36.0397C36.5777 36.4179 36.2461 36.7106 35.8708 36.6637L32.0975 36.192C31.7828 36.1527 31.5466 35.8852 31.5466 35.568V24.1006Z" fill="black"/>
<path d="M24 25.6729C24 25.3557 24.2362 25.0882 24.5509 25.0488L28.3242 24.5772C28.6995 24.5302 29.0311 24.8229 29.0311 25.2012V35.0963C29.0311 35.4746 28.6995 35.7673 28.3242 35.7204L24.5509 35.2487C24.2362 35.2094 24 34.9418 24 34.6247V25.6729Z" fill="black"/>
<path d="M43.6479 24.0553C43.9279 24.1253 44.1243 24.3768 44.1243 24.6654V29.908C44.1243 30.2252 43.8881 30.4927 43.5734 30.5321L39.8001 31.0037C39.4248 31.0506 39.0932 30.758 39.0932 30.3797V23.722C39.0932 23.3129 39.4777 23.0127 39.8746 23.1119L43.6479 24.0553Z" fill="black"/>
<path d="M51.042 26.2376C51.042 25.949 50.8456 25.6975 50.5657 25.6275L46.7924 24.6842C46.3954 24.5849 46.011 24.8851 46.011 25.2943V30.0653C46.011 30.4435 46.3425 30.7362 46.7178 30.6893L50.4911 30.2176C50.8059 30.1783 51.042 29.9108 51.042 29.5936V26.2376Z" fill="black"/>
<path d="M51.042 32.6643L38.7788 32.9787C38.9562 35.2853 40.8796 37.0665 43.193 37.0665H46.011V39.7429L24 37.6954V50.8062L51.042 48.9195V32.6643Z" fill="black"/>
</svg>
