<svg width="75" height="75" viewBox="0 0 75 75" fill="none" xmlns="http://www.w3.org/2000/svg">
<circle cx="37.9434" cy="37.0566" r="37.0566" fill="#180B3D"/>
<path fill-rule="evenodd" clip-rule="evenodd" d="M40.2126 19.7385C41.1973 18.7538 42.7938 18.7538 43.7786 19.7385L53 28.96L43.7366 37.8023C42.7293 38.7639 41.1332 38.7267 40.1716 37.7194C39.21 36.712 39.2472 35.1159 40.2545 34.1544L43.0986 31.4396H36.9525C32.032 31.4396 28.0431 35.4285 28.0431 40.349C28.0431 45.2695 32.032 49.2584 36.9525 49.2584H49.3921C50.7847 49.2584 51.9136 50.3873 51.9136 51.78C51.9136 53.1726 50.7847 54.3015 49.3921 54.3015H36.9525C29.2467 54.3015 23 48.0547 23 40.349C23 32.6432 29.2467 26.3965 36.9525 26.3965H43.3045L40.2126 23.3045C39.2278 22.3198 39.2278 20.7233 40.2126 19.7385Z" fill="url(#paint0_linear_38_942)"/>
<defs>
<linearGradient id="paint0_linear_38_942" x1="19.4699" y1="34.9697" x2="67.2109" y2="51.78" gradientUnits="userSpaceOnUse">
<stop stop-color="#38FF4C"/>
<stop offset="0.630986" stop-color="#23DE79"/>
<stop offset="1" stop-color="white"/>
</linearGradient>
</defs>
</svg>
