<svg width="210" height="210" viewBox="0 0 210 210" fill="none" xmlns="http://www.w3.org/2000/svg">
<circle cx="105" cy="105" r="105" fill="#F36C33"/>
<path fill-rule="evenodd" clip-rule="evenodd" d="M139.248 50.3653C130.742 46.1244 120.781 45.925 112.111 49.822L59.9307 73.2775C56.4399 74.8466 54.1945 78.3178 54.1945 82.145V88.3309C54.1945 92.0175 56.2797 95.3869 59.579 97.0318L101.76 118.061C104.491 119.422 107.704 119.422 110.435 118.061L152.986 96.8476C160.458 93.1221 169.241 98.5569 169.241 106.907V114.831C169.241 119.094 166.83 122.989 163.016 124.891L111.113 150.766C107.955 152.341 104.241 152.341 101.083 150.766L60.6481 130.608C57.6813 129.129 54.1945 131.287 54.1945 134.602C54.1945 136.294 55.1516 137.841 56.666 138.596L101.812 161.103C104.525 162.455 107.713 162.465 110.434 161.129L145.864 143.734C148.65 142.366 152.018 143.516 153.386 146.302C154.754 149.088 153.604 152.456 150.818 153.824L111.07 173.339C107.924 174.883 104.238 174.872 101.102 173.308L49.1795 147.423C45.365 145.521 42.9543 141.626 42.9543 137.364V127.391C42.9543 119.041 51.7367 113.606 59.2095 117.332L101.76 138.544C104.491 139.906 107.704 139.906 110.435 138.544L156.037 115.81C157.24 115.21 158.001 113.982 158.001 112.637C158.001 110.003 155.23 108.288 152.873 109.463L111.113 130.282C107.955 131.857 104.241 131.857 101.083 130.282L49.1795 104.407C45.3651 102.505 42.9543 98.6096 42.9543 94.3474V75.8559C42.9543 71.4311 45.5503 67.418 49.5862 65.6039L107.503 39.5699C119.247 34.291 132.74 34.5611 144.263 40.3059C165.285 50.7858 164.846 80.9291 143.529 90.7934L110.933 105.877C107.807 107.324 104.191 107.257 101.12 105.697L70.2959 90.0332C67.5288 88.627 66.4256 85.244 67.8317 82.4769C69.2378 79.7098 72.6209 78.6065 75.388 80.0126L102.006 93.5391C104.662 94.8887 107.79 94.9462 110.494 93.6951L138.809 80.5925C151.572 74.6867 151.834 56.6396 139.248 50.3653Z" fill="white"/>
</svg>
