<svg width="210" height="210" viewBox="0 0 210 210" fill="none" xmlns="http://www.w3.org/2000/svg">
<circle cx="105" cy="105" r="105" fill="#11072A"/>
<path d="M72 119.797C72 125.192 76.3747 129.568 81.771 129.568C87.1674 129.568 91.542 125.192 91.542 119.797C91.542 115.841 85.8063 112.12 85.8063 105.141C85.8063 98.8591 91.542 94.4398 91.542 90.484C91.542 85.0887 87.1674 80.713 81.771 80.713C76.3747 80.713 72 85.0887 72 90.484C72 94.4398 77.7358 98.8591 77.7358 105.141C77.7358 111.422 72 115.841 72 119.797Z" fill="#22DFFD"/>
<path d="M119.458 59.771C119.458 54.3757 123.833 50 129.229 50C134.625 50 139 54.3757 139 59.771C139 61.4701 137.942 63.1259 136.735 65.0151C135.131 67.5246 133.264 70.4459 133.264 74.4275C133.264 77.9297 135.047 80.853 136.625 83.4399C137.877 85.4928 139 87.3338 139 89.0841C139 89.3187 138.992 89.5514 138.975 89.7819C138.992 90.0124 139 90.2451 139 90.4797C139 92.1787 137.942 93.8345 136.735 95.7238C135.131 98.2332 133.264 101.155 133.264 105.136C133.264 108.638 135.047 111.562 136.625 114.149C137.877 116.201 139 118.042 139 119.793C139 120.027 138.992 120.26 138.975 120.491C138.992 120.721 139 120.954 139 121.189C139 122.939 137.877 124.78 136.625 126.833C135.047 129.42 133.264 132.343 133.264 135.845C133.264 139.827 135.131 142.748 136.735 145.258C137.942 147.147 139 148.803 139 150.502C139 155.897 134.625 160.273 129.229 160.273C123.833 160.273 119.458 155.897 119.458 150.502C119.458 148.751 120.581 146.91 121.833 144.857C123.411 142.271 125.194 139.347 125.194 135.845C125.194 132.343 123.411 129.42 121.833 126.833C120.581 124.78 119.458 122.939 119.458 121.189C119.458 120.954 119.466 120.721 119.483 120.491C119.466 120.26 119.458 120.027 119.458 119.793C119.458 118.042 120.581 116.201 121.833 114.149C123.411 111.562 125.194 108.638 125.194 105.136C125.194 101.634 123.411 98.7108 121.833 96.1239C120.581 94.071 119.458 92.23 119.458 90.4797C119.458 90.2451 119.466 90.0124 119.482 89.7819C119.466 89.5514 119.458 89.3187 119.458 89.0841C119.458 87.3338 120.581 85.4928 121.833 83.4399C123.411 80.853 125.194 77.9297 125.194 74.4275C125.194 70.9254 123.411 68.0021 121.833 65.4152C120.581 63.3623 119.458 61.5213 119.458 59.771Z" fill="#22DFFD"/>
<path d="M105.499 144.921C100.103 144.921 95.7281 140.545 95.7281 135.15C95.7281 133.399 96.851 131.558 98.1031 129.505C99.6809 126.918 101.464 123.995 101.464 120.493C101.464 116.991 99.6809 114.068 98.1031 111.481C96.851 109.428 95.7281 107.587 95.7281 105.836C95.7281 105.602 95.7364 105.369 95.7526 105.139C95.7364 104.908 95.7281 104.675 95.7281 104.441C95.7281 102.69 96.851 100.849 98.1031 98.7964C99.6809 96.2095 101.464 93.2862 101.464 89.7841C101.464 86.2819 99.6809 83.3586 98.1031 80.7718C96.851 78.7189 95.7281 76.8778 95.7281 75.1275C95.7281 69.7322 100.103 65.3565 105.499 65.3565C110.895 65.3565 115.27 69.7322 115.27 75.1275C115.27 76.8266 114.212 78.4824 113.005 80.3716C111.401 82.8811 109.534 85.8024 109.534 89.7841C109.534 93.2862 111.317 96.2095 112.895 98.7964C114.147 100.849 115.27 102.69 115.27 104.441C115.27 104.675 115.262 104.908 115.246 105.138C115.262 105.369 115.27 105.602 115.27 105.836C115.27 107.587 114.147 109.428 112.895 111.481C111.317 114.068 109.534 116.991 109.534 120.493C109.534 124.475 111.401 127.396 113.005 129.905C114.212 131.795 115.27 133.45 115.27 135.15C115.27 140.545 110.895 144.921 105.499 144.921Z" fill="#22DFFD"/>
</svg>
