<svg width="76" height="75" viewBox="0 0 76 75" fill="none" xmlns="http://www.w3.org/2000/svg">
<circle cx="38.0017" cy="37.0566" r="37.0566" fill="#0D1036"/>
<path d="M25.0521 29.9344C26.262 33.8137 30.3876 35.9777 34.2669 34.7678C38.1462 33.558 47.3343 27.2417 46.1244 23.3624C44.9145 19.4831 33.7648 19.5097 29.8855 20.7196C26.0062 21.9295 23.8422 26.0551 25.0521 29.9344Z" fill="url(#paint0_radial_38_935)"/>
<path d="M22.7077 51.2062C24.9847 53.4832 28.6759 53.4832 30.9529 51.2062C33.2299 48.9293 37.3523 41.1152 35.0757 38.8383C32.7987 36.5615 24.9847 40.6841 22.7077 42.9609C20.4308 45.2378 20.4308 48.9293 22.7077 51.2062Z" fill="url(#paint1_radial_38_935)"/>
<path d="M44.4952 53.445C48.4204 54.4967 52.455 52.1674 53.5068 48.2422C54.5583 44.317 54.1336 33.1756 50.2084 32.1237C46.2832 31.0721 40.3445 40.5084 39.2926 44.4336C38.2408 48.3586 40.57 52.3932 44.4952 53.445Z" fill="url(#paint2_linear_38_935)"/>
<defs>
<radialGradient id="paint0_radial_38_935" cx="0" cy="0" r="1" gradientUnits="userSpaceOnUse" gradientTransform="translate(46.2254 23.1793) rotate(162.759) scale(31.0299 44.2062)">
<stop stop-color="#3E96F7"/>
<stop offset="0.48585" stop-color="#9301FF"/>
<stop offset="0.71428" stop-color="#CC01FE"/>
</radialGradient>
<radialGradient id="paint1_radial_38_935" cx="0" cy="0" r="1" gradientUnits="userSpaceOnUse" gradientTransform="translate(36.9794 37.9858) rotate(146.921) scale(26.5871 61.6301)">
<stop offset="0.0977501" stop-color="#D730A2"/>
<stop offset="0.467786" stop-color="#FD291C"/>
<stop offset="0.700031" stop-color="#FCA13D"/>
</radialGradient>
<linearGradient id="paint2_linear_38_935" x1="48.4249" y1="32.8764" x2="48.4249" y2="53.9279" gradientUnits="userSpaceOnUse">
<stop stop-color="#9F58EE"/>
<stop offset="1" stop-color="#56F77C"/>
</linearGradient>
</defs>
</svg>
