<svg width="210" height="210" viewBox="0 0 210 210" fill="none" xmlns="http://www.w3.org/2000/svg">
<circle cx="105" cy="105" r="105" fill="#7AB7DC"/>
<path d="M144.399 141.742C144.847 150.716 136.381 158.429 125.49 158.97C114.598 159.511 105.405 152.675 104.957 143.701C104.509 134.727 112.975 127.014 123.867 126.473C134.759 125.932 143.951 132.768 144.399 141.742Z" fill="#2B639E"/>
<path d="M105.679 123.702C105.921 128.56 103.431 132.632 100.116 132.796C96.801 132.961 93.9172 129.156 93.6746 124.298C93.4321 119.44 95.9226 115.368 99.2374 115.204C102.552 115.039 105.436 118.844 105.679 123.702Z" fill="#2B639E"/>
<path d="M120.624 113.162C120.867 118.02 118.376 122.092 115.062 122.257C111.747 122.421 108.863 118.617 108.62 113.759C108.378 108.901 110.868 104.829 114.183 104.664C117.498 104.5 120.382 108.304 120.624 113.162Z" fill="#2B639E"/>
<path d="M136.061 112.395C136.304 117.253 133.813 121.325 130.498 121.49C127.183 121.654 124.3 117.85 124.057 112.992C123.815 108.133 126.305 104.062 129.62 103.897C132.935 103.733 135.819 107.537 136.061 112.395Z" fill="#2B639E"/>
<path d="M151.984 121.403C152.226 126.261 149.736 130.332 146.421 130.497C143.106 130.661 140.222 126.857 139.98 121.999C139.737 117.141 142.228 113.069 145.543 112.904C148.857 112.74 151.741 116.545 151.984 121.403Z" fill="#2B639E"/>
<path d="M92.9463 100.245C87.8221 107.635 76.3974 108.611 67.4284 102.424C58.4594 96.237 55.3426 85.2311 60.4668 77.8413C65.5909 70.4515 77.0157 69.4762 85.9847 75.663C94.9537 81.8497 98.0705 92.8557 92.9463 100.245Z" fill="#2B639E"/>
<path d="M73.251 62.417C70.477 66.4175 66.0154 68.1341 63.2857 66.2512C60.556 64.3683 60.5919 59.5988 63.3659 55.5983C66.1399 51.5978 70.6015 49.8812 73.3312 51.7641C76.0609 53.647 76.025 58.4165 73.251 62.417Z" fill="#2B639E"/>
<path d="M91.5387 63.1351C88.7647 67.1356 84.303 68.8522 81.5733 66.9693C78.8437 65.0864 78.8796 60.3169 81.6536 56.3164C84.4276 52.3159 88.8892 50.5993 91.6189 52.4822C94.3486 54.3651 94.3126 59.1346 91.5387 63.1351Z" fill="#2B639E"/>
<path d="M104.252 71.9029C101.478 75.9034 97.016 77.62 94.2863 75.7371C91.5566 73.8541 91.5925 69.0847 94.3665 65.0842C97.1405 61.0837 101.602 59.3671 104.332 61.25C107.062 63.1329 107.026 67.9024 104.252 71.9029Z" fill="#2B639E"/>
<path d="M111.38 88.7179C108.606 92.7184 104.144 94.435 101.415 92.5521C98.6849 90.6691 98.7208 85.8997 101.495 81.8992C104.269 77.8987 108.73 76.1821 111.46 78.065C114.19 79.9479 114.154 84.7174 111.38 88.7179Z" fill="#2B639E"/>
</svg>
