<svg width="75" height="75" viewBox="0 0 75 75" fill="none" xmlns="http://www.w3.org/2000/svg">
<circle cx="37.7946" cy="37.0566" r="37.0566" fill="#1B174A"/>
<path d="M24 41.7994L24 15H32.96L32.96 28.7762C34.5238 28.1742 36.2233 27.8442 38 27.8442C45.732 27.8442 52 34.0947 52 41.8052V58H43.04V41.8052C43.04 39.0294 40.7835 36.7792 38 36.7792C35.2177 36.7792 32.962 39.0274 32.96 41.8015C32.96 41.8027 32.96 41.804 32.96 41.8052L32.96 58H24L24 41.8052C24 41.8033 24 41.8013 24 41.7994Z" fill="#815FF7"/>
<path d="M43.04 23.9351V15H52V23.9351L43.04 23.9351Z" fill="#815FF7"/>
</svg>
