<svg width="75" height="75" viewBox="0 0 75 75" fill="none" xmlns="http://www.w3.org/2000/svg">
<circle cx="37.0811" cy="37.0566" r="37.0566" fill="#FAFAFA"/>
<path fill-rule="evenodd" clip-rule="evenodd" d="M21.8604 25.6985C25.2396 21.1532 30.6509 18.2083 36.75 18.2083C42.8849 18.2083 48.324 21.1879 51.699 25.7788C51.5551 25.9265 51.4242 26.0796 51.3061 26.2325C50.6877 27.0331 50.2228 28.0644 49.8498 29.1116C49.0996 31.2178 48.5271 33.9689 47.9973 36.5452L47.9496 36.7768C47.4211 39.3482 46.9294 41.7398 46.3353 43.5151C46.0683 44.3128 45.8149 44.8763 45.5907 45.2376C45.3565 44.8737 45.0906 44.3029 44.8089 43.4939C44.1732 41.6676 43.639 39.1835 43.0722 36.5311L43.0536 36.4443L43.0536 36.4441C42.5092 33.8965 41.9315 31.1933 41.2112 29.1242C40.8494 28.0848 40.4054 27.0638 39.8247 26.2707C39.2547 25.4922 38.306 24.6137 36.9186 24.6137C35.5397 24.6137 34.5867 25.4827 34.0085 26.2524C33.4166 27.0404 32.9552 28.0571 32.575 29.0971C31.8094 31.1912 31.1834 33.9305 30.6009 36.5102L30.5408 36.7768L30.5407 36.7769C29.9639 39.3323 29.4247 41.7215 28.8126 43.5003C28.5789 44.1795 28.3584 44.696 28.1588 45.0652C27.9638 44.6977 27.7488 44.1848 27.5215 43.5108C26.9342 41.7702 26.4199 39.448 25.8674 36.9537L25.7706 36.5172C25.1982 33.9359 24.5772 31.1916 23.8007 29.0909C23.4149 28.0471 22.943 27.0253 22.3323 26.2336C22.1941 26.0543 22.0369 25.8725 21.8604 25.6985ZM19.8151 29.1886C19.9761 29.5064 20.1463 29.9003 20.3223 30.3766C20.9944 32.1949 21.5639 34.676 22.1503 37.3201L22.2644 37.8353L22.2644 37.8353C22.7983 40.2479 23.3536 42.7574 24.0077 44.6962C24.3556 45.7274 24.7758 46.7376 25.3161 47.5226C25.8271 48.2649 26.7438 49.2236 28.1534 49.2236C29.5589 49.2236 30.4778 48.2696 30.9922 47.5303C31.5372 46.7472 31.9642 45.7384 32.3192 44.7068C32.9996 42.7293 33.579 40.1609 34.1334 37.7029L34.1334 37.7027L34.2182 37.327C34.8156 34.6814 35.3907 32.1953 36.0578 30.3704C36.3669 29.5249 36.6563 28.9359 36.9082 28.5705C37.147 28.9327 37.4198 29.5124 37.709 30.3433C38.3448 32.1697 38.8789 34.6538 39.4458 37.3061L39.4643 37.393C40.0088 39.9407 40.5864 42.6439 41.3067 44.7131C41.6686 45.7525 42.1126 46.7734 42.6933 47.5666C43.2632 48.345 44.2119 49.2236 45.5994 49.2236C46.9939 49.2236 47.9392 48.3372 48.5024 47.5519C49.0741 46.7547 49.5043 45.7306 49.8519 44.692C50.5192 42.6982 51.0506 40.1109 51.5561 37.6496L51.5562 37.6495L51.6296 37.2921C52.1744 34.643 52.6975 32.1687 53.3432 30.3559C53.4836 29.9615 53.621 29.6252 53.753 29.3428C54.7427 31.6115 55.2917 34.1167 55.2917 36.75C55.2917 46.9903 46.9903 55.2917 36.75 55.2917C26.5097 55.2917 18.2083 46.9903 18.2083 36.75C18.2083 34.0569 18.7825 31.4978 19.8151 29.1886ZM36.75 14.5C24.4617 14.5 14.5 24.4617 14.5 36.75C14.5 49.0383 24.4617 59 36.75 59C49.0383 59 59 49.0383 59 36.75C59 24.4617 49.0383 14.5 36.75 14.5ZM37.1739 28.2601C37.1739 28.2605 37.1696 28.264 37.1609 28.269C37.1695 28.2621 37.1738 28.2596 37.1739 28.2601ZM36.6613 28.2626C36.6527 28.2573 36.6485 28.2537 36.6485 28.2532C36.6485 28.2528 36.6528 28.2554 36.6613 28.2626ZM45.3172 45.5899C45.3171 45.5894 45.3212 45.5858 45.3296 45.5804C45.3213 45.5876 45.3172 45.5903 45.3172 45.5899ZM45.8695 45.584C45.8695 45.5836 45.8652 45.58 45.8566 45.5747C45.8589 45.5765 45.8608 45.5781 45.8625 45.5794C45.8671 45.583 45.8695 45.5844 45.8695 45.584ZM27.7734 45.6228C27.7733 45.6222 27.7786 45.6172 27.7894 45.6096C27.7788 45.6197 27.7734 45.6235 27.7734 45.6228ZM28.5244 45.6132C28.535 45.6208 28.5403 45.6259 28.5402 45.6266C28.5402 45.6272 28.5349 45.6233 28.5244 45.6132Z" fill="#FCBB01"/>
</svg>
