<svg width="210" height="210" viewBox="0 0 210 210" fill="none" xmlns="http://www.w3.org/2000/svg">
<circle cx="105" cy="105" r="105" fill="#262351"/>
<path d="M79.5303 132.125H133.496V156.013C133.496 159.666 130.535 162.627 126.881 162.627H86.1448C82.4917 162.627 79.5303 159.666 79.5303 156.013V132.125Z" fill="white"/>
<path fill-rule="evenodd" clip-rule="evenodd" d="M93.5781 49.2727C80.7283 51.8885 69.4057 58.7053 61.1067 68.2264C61.1064 68.2262 61.107 68.2266 61.1067 68.2264C52.1235 78.5322 46.6821 92.006 46.6821 106.751V108.798C46.6826 108.797 46.6831 108.796 46.6835 108.795V110.946C46.6835 111.408 46.6835 111.639 46.6882 111.835C46.8968 120.599 53.9524 127.655 62.717 127.863C62.9124 127.868 63.1434 127.868 63.6055 127.868H147.078C147.54 127.868 147.771 127.868 147.967 127.863C156.731 127.655 163.787 120.599 163.995 111.835C164 111.639 164 111.408 164 110.946V106.751C164 74.355 137.738 48.0928 105.342 48.0928C101.313 48.0928 97.3782 48.4992 93.5781 49.2727C93.5781 49.2726 93.5781 49.2728 93.5781 49.2727ZM93.2871 54.1369C91.5385 64.0363 82.8938 71.5559 72.4928 71.5559C70.0369 71.5559 67.6789 71.1367 65.4865 70.3659C72.7641 62.3987 82.3988 56.6212 93.2871 54.1369ZM122.384 55.5315C124.662 64.734 132.976 71.5559 142.882 71.5559C143.958 71.5559 145.016 71.4754 146.048 71.3202C139.782 64.1265 131.64 58.6096 122.384 55.5315ZM159.151 102.606C155.434 99.3434 150.561 97.3655 145.227 97.3655C133.564 97.3655 124.11 106.82 124.11 118.482C124.11 120.095 124.291 121.666 124.633 123.175H147.078C147.567 123.175 147.729 123.175 147.855 123.172C154.115 123.023 159.155 117.983 159.304 111.723C159.307 111.597 159.307 111.435 159.307 110.946V106.751C159.307 105.356 159.255 103.974 159.151 102.606ZM86.0459 123.175C86.3884 121.666 86.5693 120.095 86.5693 118.482C86.5693 106.82 77.1149 97.3655 65.4523 97.3655C60.1202 97.3655 55.2498 99.3417 51.5333 102.602C51.4292 103.971 51.3762 105.355 51.3762 106.751V110.946C51.3762 111.435 51.3765 111.597 51.3795 111.723C51.5285 117.983 56.5682 123.023 62.8286 123.172C62.9541 123.175 63.1164 123.175 63.6055 123.175H86.0459ZM126.458 87.9803C126.458 99.6429 117.003 109.097 105.341 109.097C93.6782 109.097 84.2238 99.6429 84.2238 87.9803C84.2238 76.3177 93.6782 66.8633 105.341 66.8633C117.003 66.8633 126.458 76.3177 126.458 87.9803Z" fill="#6DD37F"/>
</svg>
