<svg width="210" height="210" viewBox="0 0 210 210" fill="none" xmlns="http://www.w3.org/2000/svg">
<circle cx="105" cy="105" r="105" fill="#33A6D8"/>
<path fill-rule="evenodd" clip-rule="evenodd" d="M109.004 47C93.9111 47 80.7138 52.9231 70.4774 60.0889C60.2573 67.2433 52.6939 75.837 48.7698 81.7408C47.9408 82.9881 47.7702 84.5611 48.3124 85.9574L68.4029 137.687L56.4379 158.391L64.4021 163L77.4724 140.383C78.171 139.174 78.2834 137.713 77.7778 136.411L57.7797 84.9195C61.4166 79.9964 67.6294 73.3178 75.751 67.6324C84.9704 61.1786 96.354 56.2061 109.004 56.2061C120.96 56.2061 129.652 59.2864 136.001 63.9912C142.38 68.7182 146.74 75.3439 149.561 82.9881C154.738 97.0188 154.501 113.903 152.403 126.442H112.214L105.377 107.822C110.168 104.412 113.32 98.8943 113.32 92.5703C113.32 82.0107 104.531 73.6978 94 73.6978C83.4686 73.6978 74.68 82.0107 74.68 92.5703C74.68 103.13 83.4686 111.443 94 111.443C94.9599 111.443 95.9053 111.374 96.8309 111.24L104.686 132.632C105.351 134.444 107.075 135.648 109.004 135.648H156.216C158.391 135.648 160.269 134.123 160.717 131.993C163.604 118.27 164.705 97.4537 158.191 79.7993C154.905 70.8931 149.614 62.6236 141.476 56.5928C133.308 50.5399 122.617 47 109.004 47ZM83.88 92.5703C83.88 87.3684 88.2721 82.9039 94 82.9039C99.7279 82.9039 104.12 87.3684 104.12 92.5703C104.12 97.7723 99.7279 102.237 94 102.237C88.2721 102.237 83.88 97.7723 83.88 92.5703Z" fill="#22DFFD"/>
</svg>
