<svg width="210" height="210" viewBox="0 0 210 210" fill="none" xmlns="http://www.w3.org/2000/svg">
<circle cx="105" cy="105" r="105" fill="#0090F1"/>
<path d="M134.883 142.824C130.777 142.824 128.247 140.929 124.114 138.696C119.981 136.464 108.027 127.475 108.027 116.286C108.027 108.695 106.071 102.556 102.739 97.6635C99.4312 92.8085 94.9508 89.4449 90.2895 87.0705C88.0434 85.9264 85.706 84.991 83.3784 84.2178C82.0215 83.7673 81.2342 82.3105 81.8228 81.0078C85.5542 72.7473 93.8641 67 103.517 67C116.658 67 127.311 77.6523 127.311 90.7932C127.311 93.6045 126.823 96.3023 125.928 98.8057C129.72 96.2498 134.289 94.7584 139.207 94.7584C152.347 94.7584 163 105.411 163 118.552C163 134.371 149.099 142.824 134.883 142.824Z" fill="white"/>
<path d="M48 116.569C48 129.111 56.2686 139.561 67.2226 141.87C68.9134 142.487 70.7386 142.824 72.6429 142.824H109.61C110.85 142.824 111.39 141.166 110.443 140.365C103.983 134.899 99.1813 127.195 99.1813 116.286C99.1813 110.292 97.6634 105.926 95.4271 102.644C93.1656 99.324 89.9847 96.8428 86.2743 94.9521C82.5294 93.0448 78.4636 91.8298 74.581 90.9684C73.6666 90.853 72.736 90.7932 71.7932 90.7932C58.6523 90.7932 48 102.333 48 116.569Z" fill="white"/>
</svg>
