<svg width="210" height="210" viewBox="0 0 210 210" fill="none" xmlns="http://www.w3.org/2000/svg">
<circle cx="105" cy="105" r="105" fill="#EF898B"/>
<path fill-rule="evenodd" clip-rule="evenodd" d="M105 166.856C104.333 166.987 103.642 167.031 102.941 166.978C81.2911 165.332 60.7991 153.353 49.1237 133.096C37.448 112.838 37.3378 89.0714 46.7406 69.4668C48.1057 66.6205 51.065 64.9091 54.2082 65.148C62.2761 65.7612 70.1833 67.8095 77.5333 71.1864C83.0793 60.3538 91.2847 51.1127 101.286 44.328C103.896 42.5573 107.31 42.5573 109.92 44.328C119.786 51.0206 127.904 60.1033 133.445 70.746C140.517 67.631 148.081 65.7341 155.792 65.148C158.935 64.9091 161.894 66.6205 163.259 69.4668C172.662 89.0714 172.552 112.838 160.876 133.096C149.201 153.353 128.709 165.332 107.059 166.978C106.358 167.031 105.667 166.987 105 166.856ZM120.862 154.576C133.84 150.155 145.318 141.183 152.703 128.369C162.533 111.313 162.854 91.3689 155.276 74.6812C149.053 75.2859 142.963 76.8802 137.249 79.3972C140.036 87.0774 141.557 95.367 141.557 104.012C141.557 123.716 133.659 141.571 120.862 154.576ZM125.09 75.142C120.46 66.2383 113.753 58.5872 105.603 52.8306C97.2788 58.7105 90.4593 66.5669 85.8214 75.7158C93.203 80.4444 99.7606 86.6646 105 94.2438C110.454 86.354 117.337 79.9369 125.09 75.142ZM110.347 103.413C115.089 95.3101 121.476 88.7626 128.842 83.9528C130.968 90.2506 132.119 96.9969 132.119 104.012C132.119 120.208 125.981 134.97 115.891 146.089C118.621 132.043 116.97 117.083 110.347 103.413ZM99.6529 103.413C95.1241 95.6745 89.0948 89.3546 82.1457 84.6122C80.1598 90.7206 79.087 97.2411 79.087 104.012C79.087 119.378 84.6112 133.452 93.7945 144.35C91.5235 130.814 93.3031 116.521 99.6529 103.413ZM105 150.71C108.543 139.424 108.688 127.112 105 115.441C101.312 127.112 101.457 139.424 105 150.71ZM57.2968 128.369C65.0175 141.765 77.2117 150.962 90.9152 155.15C77.7823 142.099 69.6494 124.007 69.6494 104.012C69.6494 95.5427 71.1087 87.4146 73.7891 79.8663C67.7771 77.0776 61.3251 75.3227 54.7243 74.6812C47.1464 91.3689 47.4665 111.313 57.2968 128.369Z" fill="white"/>
</svg>
