<svg width="75" height="75" viewBox="0 0 75 75" fill="none" xmlns="http://www.w3.org/2000/svg">
<circle cx="37.212" cy="37.0566" r="37.0566" fill="#DE9931"/>
<path fill-rule="evenodd" clip-rule="evenodd" d="M37 13C23.7452 13 13 23.7452 13 37C13 50.2548 23.7452 61 37 61C50.2548 61 61 50.2548 61 37C61 23.7452 50.2548 13 37 13ZM18.3816 37C18.3816 26.7173 26.7173 18.3816 37 18.3816C47.2827 18.3816 55.6184 26.7173 55.6184 37C55.6184 46.3842 48.6757 54.1468 39.6466 55.4317V51.3249L44.4253 49.5608C47.1871 48.5412 49.0213 45.909 49.0213 42.965V34.8788C49.0213 33.3927 47.8165 32.188 46.3305 32.188C44.8444 32.188 43.6397 33.3927 43.6397 34.8788V42.965C43.6397 43.6556 43.2094 44.273 42.5616 44.5122L39.6466 45.5883V24.2893C39.6466 22.8032 38.4419 21.5985 36.9558 21.5985C35.4697 21.5985 34.265 22.8032 34.265 24.2893V35.8347L31.437 34.7907C30.7892 34.5516 30.359 33.9341 30.359 33.2436V29.7577C30.359 28.2716 29.1543 27.0669 27.6682 27.0669C26.1821 27.0669 24.9774 28.2716 24.9774 29.7577V33.2436C24.9774 36.1875 26.8115 38.8198 29.5733 39.8393L34.265 41.5713V55.4189C25.279 54.0961 18.3816 46.3535 18.3816 37Z" fill="#FED7C1"/>
</svg>
