<svg width="75" height="75" viewBox="0 0 75 75" fill="none" xmlns="http://www.w3.org/2000/svg">
<circle cx="37.0566" cy="37.0566" r="37.0566" fill="#F36C33"/>
<path fill-rule="evenodd" clip-rule="evenodd" d="M36.9693 62.0001C50.7934 62.0001 62.0001 50.7934 62.0001 36.9693C62.0001 23.1451 50.7934 11.9385 36.9693 11.9385C23.1451 11.9385 11.9385 23.1451 11.9385 36.9693C11.9385 50.7934 23.1451 62.0001 36.9693 62.0001ZM47.3357 21.6485C47.6328 21.8998 47.8038 22.2691 47.8038 22.6582L47.8032 27.6871L47.8038 28.018L47.8032 28.0575V44.8916C47.8032 47.8152 45.4333 50.1851 42.5097 50.1851C39.5861 50.1851 37.2162 47.8152 37.2162 44.8916C37.2162 41.968 39.5861 39.5978 42.5097 39.5978C43.474 39.5978 44.3777 39.8557 45.1565 40.3061V29.5801L31.9221 31.7863V47.5383C31.9221 50.4619 29.5522 52.8319 26.6286 52.8319C23.705 52.8319 21.3351 50.4619 21.3351 47.5383C21.3351 44.6147 23.705 42.2445 26.6286 42.2445C27.5928 42.2445 28.4972 42.5025 29.2753 42.9529L29.2759 30.6647L29.2753 30.3338L29.2759 30.2943V25.3049C29.2759 24.6582 29.7435 24.106 30.3821 23.9996L46.2626 21.3528C46.6465 21.2888 47.039 21.397 47.3357 21.6485Z" fill="white"/>
</svg>
